<svg height="512pt" viewBox="0 0 512 512" width="512pt" xmlns="http://www.w3.org/2000/svg"><path d="m437.019531 74.980469c-48.351562-48.351563-112.640625-74.980469-181.019531-74.980469s-132.667969 26.628906-181.019531 74.980469c-48.351563 48.351562-74.980469 112.640625-74.980469 181.019531s26.628906 132.667969 74.980469 181.019531c48.351562 48.351563 112.640625 74.980469 181.019531 74.980469s132.667969-26.628906 181.019531-74.980469c48.351563-48.351562 74.980469-112.640625 74.980469-181.019531s-26.628906-132.667969-74.980469-181.019531zm-21.214843 340.824219c-42.683594 42.6875-99.4375 66.195312-159.804688 66.195312s-117.121094-23.507812-159.804688-66.195312c-42.6875-42.683594-66.195312-99.4375-66.195312-159.804688s23.507812-117.121094 66.195312-159.804688c42.683594-42.6875 99.4375-66.195312 159.804688-66.195312s117.121094 23.507812 159.804688 66.195312c42.6875 42.683594 66.195312 99.4375 66.195312 159.804688s-23.507812 117.121094-66.195312 159.804688zm0 0"/><path d="m256 60c-108.074219 0-196 87.925781-196 196s87.925781 196 196 196 196-87.925781 196-196-87.925781-196-196-196zm0 362c-91.53125 0-166-74.46875-166-166s74.46875-166 166-166 166 74.46875 166 166-74.46875 166-166 166zm0 0"/><path d="m271 213.644531v-93.609375h-30v93.609375c-17.425781 6.1875-29.9375 22.835938-29.9375 42.355469 0 24.78125 20.160156 44.9375 44.9375 44.9375 19.519531 0 36.164062-12.511719 42.355469-29.9375h63.585937v-30h-63.585937c-4.519531-12.730469-14.625-22.835938-27.355469-27.355469zm-15 57.292969c-8.238281 0-14.9375-6.699219-14.9375-14.9375s6.699219-14.9375 14.9375-14.9375 14.9375 6.699219 14.9375 14.9375-6.699219 14.9375-14.9375 14.9375zm0 0"/></svg>