<svg height="512pt" viewBox="0 0 512 512" width="512pt" xmlns="http://www.w3.org/2000/svg"><path d="m256 0c-140.960938 0-256 115.050781-256 256 0 76.90625 35.34375 149.894531 96.550781 198.980469l-56.554687 57.019531h432.007812l-56.554687-57.019531c61.207031-49.085938 96.550781-122.074219 96.550781-198.980469 0-140.957031-115.046875-256-256-256zm-143.996094 482 34.460938-35h219.070312l34.460938 35zm248.996094-241h-90v-60h90zm-207.421875-90c6.195313-17.457031 22.867187-30 42.421875-30h120c19.554688 0 36.226562 12.542969 42.421875 30zm-2.578125 30h90v60h-90zm0 90h210v90h-210zm158.75 120 26.03125 26h-159.5625l26.03125-26zm84.453125 42.554688-42.199219-42.554688h38.996094v-225c0-41.355469-33.644531-75-75-75h-120c-41.355469 0-75 33.644531-75 75v225h38.996094l-42.199219 42.554688c-55.078125-42.90625-87.796875-108.84375-87.796875-177.554688 0-124.617188 101.382812-226 226-226s226 101.382812 226 226c0 68.710938-32.71875 134.648438-87.796875 177.554688zm0 0"/><path d="m196 294.785156 21.214844 21.210938-21.214844 21.214844-21.210938-21.214844zm0 0"/><path d="m316 294.78125 21.214844 21.214844-21.214844 21.210937-21.214844-21.210937zm0 0"/></svg>