<svg height="512pt" viewBox="0 0 512 512" width="512pt" xmlns="http://www.w3.org/2000/svg"><path d="m105 398.214844-21.214844-21.210938 21.214844-21.214844 21.210938 21.214844zm0 0"/><path d="m347 355.78125 21.214844 21.214844-21.214844 21.210937-21.210938-21.210937zm0 0"/><path d="m30 242h-30v270h452v-120h60c0-43.445312 0-349.878906 0-392h-482zm57.421875-90c-4.527344 12.765625-14.65625 22.894531-27.421875 27.421875v-27.421875zm276.085937 120c5.980469 29.34375 29.148438 52.511719 58.492188 58.492188v93.019531c-29.34375 5.976562-52.511719 29.144531-58.492188 58.488281h-275.015624c-5.980469-29.34375-29.148438-52.511719-58.492188-58.492188v-93.019531c29.34375-5.976562 52.511719-29.144531 58.492188-58.488281zm-134.929687-30c6.195313-17.457031 22.867187-30 42.421875-30 19.589844 0 36.78125 12.71875 43.257812 30zm193.421875 57.421875c-12.765625-4.527344-22.894531-14.65625-27.421875-27.421875h27.421875zm-364.578125-27.421875c-4.527344 12.765625-14.65625 22.894531-27.421875 27.421875v-27.421875zm-27.421875 182.578125c12.765625 4.527344 22.894531 14.65625 27.421875 27.421875h-27.421875zm364.578125 27.421875c4.527344-12.765625 14.65625-22.894531 27.421875-27.421875v27.421875zm57.421875-120v-120h-106.535156c-6.964844-33.59375-37.519532-60-74.464844-60-36.21875 0-66.523438 25.808594-73.492188 60h-137.507812v-31.507812c29.34375-5.980469 52.511719-29.148438 58.492188-58.492188h305.019531c5.976562 29.34375 29.144531 52.511719 58.488281 58.492188v151.507812zm-223.421875-240c6.195313-17.457031 22.867187-30 42.421875-30 19.589844 0 36.78125 12.71875 43.257812 30zm253.421875 57.421875c-12.765625-4.527344-22.894531-14.65625-27.421875-27.421875h27.421875zm-136.535156-57.421875c-6.964844-33.59375-37.519532-60-74.464844-60-36.21875 0-66.523438 25.808594-73.492188 60h-137.507812v-31.578125c29.363281-6.238281 52.65625-30.722656 58.53125-60.421875h304.9375c5.867188 29.660156 29.128906 54.175781 58.53125 60.421875v31.578125zm136.535156-62.800781c-12.773438-4.890625-23.046875-15.773438-27.539062-29.199219h27.539062zm-394.460938-29.199219c-4.492187 13.425781-14.765624 24.308594-27.539062 29.199219v-29.199219zm0 0"/><path d="m226 452c41.355469 0 75-33.644531 75-75s-33.644531-75-75-75-75 33.644531-75 75 33.644531 75 75 75zm0-120c24.8125 0 45 20.1875 45 45s-20.1875 45-45 45-45-20.1875-45-45 20.1875-45 45-45zm0 0"/></svg>